HIERARCHY
ROOT Hips
{
	OFFSET -3.958830 18.904000 13.208200
	CHANNELS 6 Xposition Yposition Zposition Zrotation Yrotation Xrotation 
	JOINT LHipJoint
	{
		OFFSET 0.000000 0.000000 0.000000
		CHANNELS 3 Zrotation Yrotation Xrotation
		JOINT LeftUpLeg
		{
			OFFSET 1.800000 -1.400000 0.085000
			CHANNELS 3 Zrotation Yrotation Xrotation
			JOINT LeftLeg
			{
				OFFSET 2.215000 -6.000000 0.000000
				CHANNELS 3 Zrotation Yrotation Xrotation
				JOINT LeftFoot
				{
					OFFSET 2.500000 -6.900000 0.000000
					CHANNELS 3 Zrotation Yrotation Xrotation
					JOINT LeftToeBase
					{
						OFFSET 0.200000 -0.500000 1.950000
						CHANNELS 3 Zrotation Yrotation Xrotation
						End Site
						{
							OFFSET 0.000000 0.000000 0.000000
						}
					}
				}
			}
		}
	}
	JOINT RHipJoint
	{
		OFFSET 0.000000 0.000000 0.000000
		CHANNELS 3 Zrotation Yrotation Xrotation
		JOINT RightUpLeg
		{
			OFFSET -1.800000 -1.400000 0.085000
			CHANNELS 3 Zrotation Yrotation Xrotation
			JOINT RightLeg
			{
				OFFSET -2.215000 -6.000000 0.000000
				CHANNELS 3 Zrotation Yrotation Xrotation
				JOINT RightFoot
				{
					OFFSET -2.500000 -6.900000 0.000000
					CHANNELS 3 Zrotation Yrotation Xrotation
					JOINT RightToeBase
					{
						OFFSET -0.200000 -0.500000 1.950000
						CHANNELS 3 Zrotation Yrotation Xrotation
						End Site
						{
							OFFSET 0.000000 0.000000 0.000000
						}
					}
				}
			}
		}
	}
	JOINT LowerBack
	{
		OFFSET 0.000000 0.000000 0.000000
		CHANNELS 3 Zrotation Yrotation Xrotation
		JOINT Spine
		{
			OFFSET -0.087000 1.940000 -0.288900
			CHANNELS 3 Zrotation Yrotation Xrotation
			JOINT Spine1
			{
				OFFSET 0.000000 1.950000 0.060000
				CHANNELS 3 Zrotation Yrotation Xrotation
				JOINT Neck
				{
					OFFSET 0.000000 0.000000 0.000000
					CHANNELS 3 Zrotation Yrotation Xrotation
					JOINT Neck1
					{
						OFFSET 0.000000 1.600000 0.340000
						CHANNELS 3 Zrotation Yrotation Xrotation
						JOINT Head
						{
							OFFSET 0.000000 1.667000 -0.240000
							CHANNELS 3 Zrotation Yrotation Xrotation
							End Site
							{
								OFFSET 0.000000 0.000000 0.000000
							}
						}
					}
				}
				JOINT LeftShoulder
				{
					OFFSET 0.000000 0.000000 0.000000
					CHANNELS 3 Zrotation Yrotation Xrotation
					JOINT LeftArm
					{
						OFFSET 2.700000 1.550000 -0.730000
						CHANNELS 3 Zrotation Yrotation Xrotation
						JOINT LeftForeArm
						{
							OFFSET 5.450000 0.000000 0.000000
							CHANNELS 3 Zrotation Yrotation Xrotation
							JOINT LeftHand
							{
								OFFSET 3.450000 0.000000 0.000000
								CHANNELS 3 Zrotation Yrotation Xrotation
								JOINT LeftHandIndex1
								{
									OFFSET 0.750000 0.000000 0.000000
									CHANNELS 3 Zrotation Yrotation Xrotation
									End Site
									{
										OFFSET 0.000000 0.000000 0.000000
									}
								}
							}
						}
					}
				}
				JOINT RightShoulder
				{
					OFFSET 0.000000 0.000000 0.000000
					CHANNELS 3 Zrotation Yrotation Xrotation
					JOINT RightArm
					{
						OFFSET -2.700000 1.550000 -0.730000
						CHANNELS 3 Zrotation Yrotation Xrotation
						JOINT RightForeArm
						{
							OFFSET -5.450000 0.000000 0.000000
							CHANNELS 3 Zrotation Yrotation Xrotation
							JOINT RightHand
							{
								OFFSET -3.450000 0.000000 0.000000
								CHANNELS 3 Zrotation Yrotation Xrotation
								JOINT RightHandIndex1
								{
									OFFSET -0.750000 0.000000 0.000000
									CHANNELS 3 Zrotation Yrotation Xrotation
									End Site
									{
										OFFSET 0.000000 0.000000 0.000000
									}
								}
							}
						}
					}
				}
			}
		}
	}
}
MOTION
Frames: 14
Frame Time: 0.016667
0.166680 13.110120 -9.135330 -61.000250 -52.027444 13.479859 -15.876834 8.475434 3.779182 -47.889032 -17.440815 -65.588138 97.852283 -8.190396 28.956383 2.503165 14.357285 -0.012679 0.308130 0.328220 0.246750 18.613803 -4.926899 8.115583 -53.850403 21.041686 -30.371993 126.455228 1.905413 6.144139 -1.579083 -6.613627 2.139585 0.151490 0.188280 -0.078400 -4.393988 -0.225993 -10.858744 10.171587 12.463277 56.035889 -16.713916 17.752217 20.500700 11.001622 -3.875808 -15.252663 -10.513993 10.670139 62.866617 2.360680 -1.413080 -2.832260 -12.574021 -26.575766 15.317200 -22.095286 -4.629475 2.125133 10.066356 1.768852 -0.155858 -3.695898 2.765478 0.279550 -0.026860 0.035340 0.054970 -12.204937 41.361135 -7.086069 -16.549082 28.314035 -20.426070 -53.285780 28.962651 -15.596023 3.295211 -1.486817 -0.110730 0.376120 -0.009410 0.032650 
0.085870 13.108610 -9.131690 -58.745726 -53.843385 9.210204 -15.989695 8.888343 4.017547 -44.987269 -17.912758 -65.630784 107.322179 -8.932598 28.593580 2.825184 14.874178 -0.041540 0.381380 0.460280 0.271470 18.411217 -5.298117 7.495016 -53.024558 19.695026 -33.645821 132.117468 -14.699710 10.561413 -2.128114 -8.522442 1.621400 0.192690 0.195100 -0.075710 -4.201687 -0.778028 -10.644780 6.942152 12.190549 57.564403 -16.303494 16.614315 20.753711 10.656604 -3.822730 -15.658055 -10.864667 12.231129 61.501317 3.489960 0.287630 -2.731010 -13.027553 -26.039864 15.030449 -22.572300 -2.196449 1.931292 6.590265 3.546114 -0.056731 -3.670469 2.747589 0.232310 -0.025960 0.083620 0.131390 -11.006470 40.519681 -5.541834 -17.505248 25.861348 -19.801742 -50.166907 23.882718 -13.168293 3.227166 -1.588092 -0.056110 0.394190 -0.095620 0.084400 
0.020700 13.122360 -9.085320 -59.139844 -56.447778 6.574293 -16.010075 9.092098 4.246966 -39.584939 -17.570794 -65.604416 116.039325 -12.347093 30.651359 3.097723 15.373557 -0.164334 0.496660 0.591820 0.404950 18.297133 -5.704688 6.948425 -50.451284 20.297468 -36.950828 131.144610 -27.154208 14.343156 -2.577488 -9.960703 1.178712 0.202240 0.024940 -0.020320 -4.219855 -0.770272 -10.531322 6.403070 11.702604 60.134511 -16.552360 16.549024 21.001871 10.637687 -1.796865 -16.587822 -7.312758 9.714857 65.807087 2.066550 0.853240 -4.550090 -14.315553 -26.073725 14.392014 -22.984700 -1.688750 1.596416 4.786468 6.174099 -0.092890 -3.615379 2.758649 0.273030 -0.110220 0.225040 0.118790 -9.645105 39.335708 -3.577876 -10.861723 22.828998 -19.602750 -54.549346 23.612376 -14.623591 3.260093 -1.621827 0.059710 0.298040 -0.180900 0.068130 
-0.037090 13.120430 -8.996950 -61.648921 -58.660925 6.006590 -15.981417 9.171021 4.580644 -30.290683 -16.343539 -65.075640 123.328511 -18.347829 34.573586 3.288406 15.711240 -0.255617 0.583860 0.663740 0.518060 18.230535 -6.125683 6.370102 -46.493059 21.741936 -39.541515 126.124087 -38.249691 19.411739 -2.871964 -11.030195 0.819196 0.210560 -0.116380 0.018070 -4.337158 -0.623961 -10.477320 7.410925 9.564153 62.425221 -17.120622 16.441221 22.014414 10.605179 -0.587101 -18.867865 -6.531564 9.119027 70.010801 2.193150 1.069080 -5.402610 -16.172965 -27.280358 14.059610 -25.393956 -0.561855 1.015710 6.002583 5.844388 0.058493 -3.530001 2.822707 0.338770 -0.192640 0.326350 0.082600 -7.571922 39.446826 -0.305454 -5.349554 19.817688 -21.391254 -55.977236 22.986819 -15.058338 3.311924 -1.714189 0.127580 0.214670 -0.228670 0.031330 
-0.105310 13.123520 -8.935550 -60.269754 -58.472579 3.321122 -16.085316 9.119316 5.131728 -20.241734 -16.978724 -62.044334 126.823240 -26.014878 40.224727 3.323085 15.887573 -0.316879 0.684510 0.764130 0.596830 18.109011 -6.125410 5.876002 -44.405768 21.580813 -40.208568 115.789953 -46.776341 26.383281 -2.989006 -11.540720 0.631032 0.284850 -0.192630 0.004050 -4.147355 -1.119496 -10.503332 5.623569 8.119243 63.848039 -14.827540 15.469116 23.363507 9.701000 -0.645416 -19.519700 -8.223242 9.699357 71.363251 3.649240 0.771550 -8.222570 -18.005335 -27.545960 13.081249 -27.942483 -1.530096 0.777585 8.225293 4.424621 0.116372 -3.449078 2.850903 0.425440 -0.262700 0.385430 0.077700 -3.824925 38.926687 3.137170 -2.998904 18.771032 -21.682455 -54.250876 20.036369 -13.955895 3.172197 -1.790393 0.123020 0.232790 -0.262300 -0.006880 
-0.174300 13.067820 -8.819420 -62.373569 -56.315177 4.870032 -16.075403 8.670094 5.672097 -11.501804 -19.358157 -60.037860 127.994270 -32.090604 42.498001 3.167129 15.956413 -0.345654 0.688870 0.705360 0.620830 18.138834 -6.125614 5.673411 -41.984259 21.196135 -41.140432 95.748294 -53.475411 39.384829 -3.081457 -12.352252 0.353734 0.337650 -0.135070 -0.014950 -4.310699 -1.036490 -10.622284 9.015968 2.486005 63.396892 -15.052000 12.983177 25.502697 10.037988 -1.391978 -19.773311 -10.625330 10.172356 71.623664 4.126880 -0.977040 -10.408260 -20.540702 -27.616381 11.715980 -28.222227 -3.353074 0.781540 9.589397 2.654800 -0.186782 -3.484311 2.749558 0.519080 -0.264580 0.347810 0.056900 -1.090503 37.152836 5.375837 1.613754 20.179830 -21.060829 -51.031428 16.953179 -12.885433 2.939943 -1.787046 0.008310 0.349160 -0.196250 -0.060360 
-0.202730 13.066850 -8.691170 -60.539878 -56.373707 2.250995 -16.139753 8.636661 5.810862 -3.911188 -19.894641 -54.529319 116.931541 -39.729887 56.801784 3.329477 17.332764 -0.742221 0.847170 0.865010 0.792320 18.079598 -5.819576 5.731842 -40.102755 21.250578 -40.758347 67.654201 -52.763527 57.487170 -3.447092 -14.102259 -0.173581 0.447040 -0.255160 -0.011050 -4.147438 -1.573031 -10.673302 8.303770 1.225198 64.212404 -13.661460 11.777257 27.407911 9.560160 -0.046830 -20.492164 -9.437746 9.635500 76.823728 4.731330 -1.052980 -14.852600 -24.279851 -29.795338 11.007050 -26.132407 -6.069390 0.755805 10.926382 3.108518 -0.404026 -3.454611 2.668550 0.642470 -0.358400 0.466940 0.033270 3.591344 37.057101 7.415397 8.129302 19.363630 -22.386564 -50.473067 19.238911 -14.301010 2.773357 -1.772478 0.015710 0.393680 -0.246770 -0.117560 
-0.276900 13.000310 -8.580400 -63.411069 -57.885221 4.982345 -16.173278 8.521185 6.187099 6.368620 -19.652261 -52.471942 86.770505 -44.866039 90.943403 4.347880 22.416990 -1.792798 1.006220 1.015290 0.941320 18.070565 -5.828970 5.453200 -33.910830 20.923000 -43.136224 40.541298 -45.604651 74.299233 -3.765878 -16.084675 -0.722983 0.540020 -0.427760 0.004690 -4.138892 -1.630926 -10.708532 10.071120 -0.731157 63.613545 -12.525841 11.155903 27.115142 8.965024 1.214309 -21.568667 -8.041383 9.310859 83.491246 4.672430 -0.083470 -16.300040 -27.645768 -31.608373 10.420602 -26.911403 -7.646612 -0.637656 14.098481 1.073115 -0.881761 -3.350385 2.772396 0.746960 -0.447580 0.574640 0.018970 8.282822 37.240715 9.191645 16.921345 17.075484 -22.535437 -47.852033 22.645192 -14.994495 2.603242 -1.789210 0.050020 0.326930 -0.326370 -0.191880 
-0.328660 12.891560 -8.540160 -63.808324 -59.776987 6.310840 -16.144020 9.131997 6.199713 10.669605 -17.410716 -51.867753 63.269379 -39.456810 114.690781 5.033745 25.838784 -2.340358 1.093320 1.133330 1.044430 18.116272 -6.478635 4.942568 -25.703386 18.924970 -46.168196 17.259238 -31.064381 83.620604 -3.392986 -15.318613 -0.606863 0.570370 -0.510670 0.031800 -4.116995 -1.460477 -10.391154 11.334309 -1.569012 63.336357 -12.194577 11.813590 25.341803 8.717370 2.672642 -21.599210 -4.301819 6.377856 87.471781 3.082340 1.100680 -17.586430 -31.256110 -32.029096 9.064325 -24.304788 -12.144813 -2.418645 16.147083 -1.716308 -1.655287 -3.340325 2.775875 0.759220 -0.468250 0.667660 0.034680 12.217852 36.637436 10.019955 24.537220 13.944033 -20.871046 -42.360097 22.244711 -13.003318 2.497231 -1.743105 0.110510 0.304430 -0.404760 -0.201560 
-0.364600 12.785630 -8.514020 -61.869239 -61.832827 5.213943 -16.112212 9.938319 6.025764 13.600559 -15.590498 -50.788833 50.207463 -29.070358 128.301517 4.191777 22.563719 -1.949292 1.070060 1.078990 1.123600 18.107653 -7.129982 4.382105 -16.133248 15.718706 -47.588271 -0.462207 -14.156019 79.926975 -2.463727 -11.926481 0.140830 0.554500 -0.562450 0.032430 -3.853723 -1.741812 -10.032445 9.322321 -0.904483 63.948763 -10.339931 12.225378 23.570396 7.689140 3.758889 -21.801434 -1.064572 3.590568 90.407900 1.843680 2.816930 -18.406180 -32.575502 -33.478333 8.271349 -24.575757 -15.144191 -5.503580 19.666956 -7.036750 -3.266377 -3.324522 2.753152 0.829010 -0.476170 0.694650 -0.042280 15.601843 37.624157 11.153974 30.521629 9.578058 -19.036110 -34.858588 21.896582 -10.196280 2.377717 -1.616248 0.067910 0.302990 -0.371680 -0.281810 
-0.395380 12.643240 -8.449750 -59.441548 -66.394242 3.096239 -16.099949 9.960929 6.445038 18.389143 -14.368125 -50.458452 40.774771 -9.016181 141.187306 3.040189 17.169824 -0.963938 1.117670 1.139800 1.150390 18.073303 -7.480537 3.817585 -6.956926 12.490211 -47.286595 -12.652780 -2.505741 63.547390 -1.694260 -8.310908 1.121942 0.557400 -0.639200 0.059610 -3.829996 -1.617710 -9.952352 6.664615 -0.536068 66.184155 -9.868953 12.193247 20.578212 6.126047 3.525765 -21.945642 -2.021068 3.919721 91.685359 2.706390 4.374600 -18.926430 -32.870349 -34.804500 7.535402 -25.877759 -16.829702 -10.217457 24.689771 -15.927354 -6.283632 -3.174198 2.883375 0.854570 -0.516420 0.753510 -0.035440 19.278621 38.842826 12.233728 34.609158 6.866079 -15.938117 -27.059861 19.602743 -6.929267 2.348480 -1.572406 0.117930 0.222310 -0.415460 -0.289720 
-0.414310 12.543360 -8.404240 -62.576030 -71.703461 4.919105 -16.256928 9.478142 7.458772 28.266304 -11.028227 -48.281466 32.941809 20.010266 150.160177 2.905605 16.108456 -0.707925 1.061650 1.072990 1.140040 17.965974 -7.536485 3.106979 2.370839 10.132183 -42.576414 -18.999411 1.136163 42.256424 -1.075044 -4.782208 2.242102 0.496850 -0.653730 0.061570 -3.834169 -1.459488 -10.119406 4.619061 -0.676721 70.880317 -9.266977 12.822420 17.703305 4.832335 2.752619 -23.092773 -4.781088 5.383231 92.345647 3.113790 5.359670 -19.265580 -32.643516 -36.938922 6.979794 -26.015665 -17.624344 -13.971395 28.673961 -23.438439 -9.413717 -3.124637 2.849894 0.887870 -0.533780 0.766600 -0.079030 22.300259 41.341424 13.570287 36.696642 4.733460 -11.694229 -19.119615 13.677471 -3.271153 2.414558 -1.417255 0.113240 0.205050 -0.377790 -0.307290 
-0.398150 12.343720 -8.292830 -63.191931 -78.285929 5.561065 -16.684941 7.231587 10.082207 40.299577 -4.886321 -48.525392 -22.564314 77.765154 108.622255 4.593129 22.289590 -1.805175 0.983610 1.007850 1.030290 17.858586 -6.783704 2.308153 4.893252 8.992913 -39.722762 -13.390371 -0.649574 27.480241 -0.605885 -2.176163 3.171622 0.401840 -0.620030 0.083410 -4.116889 -0.649232 -11.006671 3.551239 -0.563134 75.473202 -9.087109 11.527057 14.407836 3.342965 1.375909 -22.826582 -8.836228 7.426240 87.419927 4.992810 4.876650 -17.962000 -30.474537 -38.585891 6.445917 -24.985965 -19.226144 -16.682312 31.500643 -31.127947 -12.488966 -3.084792 2.894213 0.812080 -0.524630 0.731220 -0.072120 23.771973 42.523178 14.533915 39.091939 3.986644 -7.761213 -13.081479 8.116145 -1.133174 2.530499 -1.293490 0.176100 0.122630 -0.361340 -0.243300 
-0.396290 12.159950 -8.273620 -41.853072 -79.394931 -14.403525 -15.906129 9.255618 8.150309 37.404134 -1.149823 -53.023688 -94.587354 52.384297 28.048342 2.380287 12.901523 0.102628 0.848350 0.858100 0.905120 18.377962 -7.455595 2.684572 -0.022498 7.005202 -42.231860 -2.043545 -2.670483 19.349030 -0.315503 -1.052561 3.589033 0.315810 -0.513470 0.078770 -3.198536 -1.713659 -10.322737 -1.132030 2.599167 76.112980 -2.884612 8.469920 13.790230 0.832023 0.268925 -21.631507 -10.494597 7.866036 80.879277 7.101840 4.793950 -16.119340 -25.424044 -39.587514 6.309226 -24.918000 -23.387183 -18.172943 36.477966 -36.566303 -16.542770 -3.152570 2.867371 0.746150 -0.468960 0.637640 -0.077800 24.283598 42.157209 15.216667 39.699534 4.339464 -5.063721 -7.764184 3.462194 -0.101916 2.624519 -1.168291 0.145570 0.105240 -0.300790 -0.211300 
